HIERARCHY
ROOT Pelvis
{
	OFFSET 0.000000 0.000000 0.000000
	CHANNELS 6 Xposition Yposition Zposition Xrotation Yrotation Zrotation
	JOINT LeftUpLeg_virtual
	{
		OFFSET 0.000000 0.000000 0.000000
		CHANNELS 3 Xrotation Yrotation Zrotation
		JOINT LeftUpLeg
		{
			OFFSET 18.735201 -5.666702 -4.541200
			CHANNELS 3 Xrotation Yrotation Zrotation
			JOINT LeftLeg
			{
				OFFSET -0.021200 -31.938179 0.493100
				CHANNELS 3 Xrotation Yrotation Zrotation
				JOINT LeftFoot
				{
					OFFSET 0.021200 -31.938179 -4.336299
					CHANNELS 3 Xrotation Yrotation Zrotation
					JOINT LeftToeBase
					{
						OFFSET 0.943001 -26.722000 15.023500
						CHANNELS 3 Xrotation Yrotation Zrotation
						End Site
						{
							OFFSET 0 0 0
						}
					}
				}
			}
		}
	}
	JOINT RightUpLeg_virtual
	{
		OFFSET 0.000000 0.000000 0.000000
		CHANNELS 3 Xrotation Yrotation Zrotation
		JOINT RightUpLeg
		{
			OFFSET -18.735201 -5.666702 -4.541200
			CHANNELS 3 Xrotation Yrotation Zrotation
			JOINT RightLeg
			{
				OFFSET 0.018946 -31.938133 0.493100
				CHANNELS 3 Xrotation Yrotation Zrotation
				JOINT RightFoot
				{
					OFFSET -0.018946 -31.938126 -4.336299
					CHANNELS 3 Xrotation Yrotation Zrotation
					JOINT RightToeBase
					{
						OFFSET -0.943001 -26.722004 15.023500
						CHANNELS 3 Xrotation Yrotation Zrotation
						End Site
						{
							OFFSET 0 0 0
						}
					}
				}
			}
		}
	}
	JOINT Hips_virtual
	{
		OFFSET 0.000000 0.000000 0.000000
		CHANNELS 3 Xrotation Yrotation Zrotation
		JOINT Hips
		{
			OFFSET -0.000000 -0.000000 -0.000000
			CHANNELS 3 Xrotation Yrotation Zrotation
			JOINT Spine
			{
				OFFSET 0.000000 10.199997 -0.299500
				CHANNELS 3 Xrotation Yrotation Zrotation
				JOINT Spine1
				{
					OFFSET 0.000000 11.900002 -1.516600
					CHANNELS 3 Xrotation Yrotation Zrotation
					JOINT Spine2
					{
						OFFSET 0.000000 13.600006 -2.842500
						CHANNELS 3 Xrotation Yrotation Zrotation
						JOINT Neck_virtual
						{
							OFFSET 0.000000 0.000000 0.000000
							CHANNELS 3 Xrotation Yrotation Zrotation
							JOINT Neck
							{
								OFFSET 0.000000 9.624100 -2.890100
								CHANNELS 3 Xrotation Yrotation Zrotation
								JOINT Head
								{
									OFFSET 0.000000 14.068802 -1.351900
									CHANNELS 3 Xrotation Yrotation Zrotation
									End Site
									{
										OFFSET 0 0 0
									}
								}
							}
						}
						JOINT LeftShoulder_virtual
						{
							OFFSET 0.000000 0.000000 0.000000
							CHANNELS 3 Xrotation Yrotation Zrotation
							JOINT LeftShoulder
							{
								OFFSET 15.263000 10.923401 -0.547700
								CHANNELS 3 Xrotation Yrotation Zrotation
								JOINT LeftArm
								{
									OFFSET 25.438599 -2.830597 -13.032500
									CHANNELS 3 Xrotation Yrotation Zrotation
									JOINT LeftForeArm
									{
										OFFSET 29.960503 0.000000 0.000000
										CHANNELS 3 Xrotation Yrotation Zrotation
										JOINT LeftHand
										{
											OFFSET 27.849251 0.000000 0.000000
											CHANNELS 3 Xrotation Yrotation Zrotation
											End Site
											{
												OFFSET 0 0 0
											}
										}
									}
								}
							}
						}
						JOINT RightShoulder_virtual
						{
							OFFSET 0.000000 0.000000 0.000000
							CHANNELS 3 Xrotation Yrotation Zrotation
							JOINT RightShoulder
							{
								OFFSET -15.263000 10.923401 -0.547700
								CHANNELS 3 Xrotation Yrotation Zrotation
								JOINT RightArm
								{
									OFFSET -25.438599 -2.830597 -13.032500
									CHANNELS 3 Xrotation Yrotation Zrotation
									JOINT RightForeArm
									{
										OFFSET -29.960503 0.000000 0.000000
										CHANNELS 3 Xrotation Yrotation Zrotation
										JOINT RightHand
										{
											OFFSET -27.849251 0.000000 0.000000
											CHANNELS 3 Xrotation Yrotation Zrotation
											End Site
											{
												OFFSET 0 0 0
											}
										}
									}
								}
							}
						}
					}
				}
			}
		}
	}
}
MOTION
Frames: 11
Frame Time: 0.03333333
-3.167178 82.245117 3.410734 0.000000 0.000000 0.000000 0.984876 -44.518825 5.404028 -44.715148 -3.563153 19.758361 43.566730 -6.477023 -5.853889 -8.192755 -3.292067 -18.564995 0.000000 0.000000 0.000000 6.323356 -50.647226 -1.579740 -27.490166 -17.764185 -24.367412 43.340282 8.622815 -0.428068 -12.503254 4.304735 16.987389 0.000000 0.000000 0.000000 -0.789487 -27.982042 1.034340 0.724768 -33.396370 4.301412 12.185169 -0.586937 -5.667262 6.393782 0.769640 -4.037011 0.000000 0.000000 0.000000 3.093579 3.516601 -1.805501 -1.093044 3.563477 -0.279812 0.000000 0.000000 0.000000 2.697096 -0.490614 -3.134846 -2.226177 -6.485750 -12.208901 -14.680291 -2.310655 -40.167390 -0.859205 -35.726930 -0.415515 0.000000 0.000000 0.000000 2.927615 1.041696 -3.132302 -0.155047 3.247620 -5.930529 -20.010431 3.350089 36.859328 -46.492066 83.055503 43.429290 0.000000 0.000000 0.000000 
-3.226964 82.228561 3.433487 0.000000 0.000000 0.000000 1.074554 -44.545988 5.498949 -44.639944 -3.587901 19.816109 43.516085 -6.506854 -5.911673 -8.210707 -3.285451 -18.697337 0.000000 0.000000 0.000000 6.432219 -50.545114 -1.546396 -27.351330 -17.752893 -24.349862 43.430892 8.698475 -0.452765 -12.447710 4.398594 16.999473 0.000000 0.000000 0.000000 -0.857514 -28.108802 1.065851 0.641748 -33.054058 4.141016 12.075909 -0.624259 -5.628812 6.360386 0.746406 -4.013333 0.000000 0.000000 0.000000 3.103061 3.447804 -1.793654 -1.118928 3.573953 -0.251836 0.000000 0.000000 0.000000 2.745183 -0.521322 -3.144812 -2.252686 -6.387123 -12.033084 -14.383825 -2.391325 -39.921312 -0.659820 -35.728805 -0.267561 0.000000 0.000000 0.000000 2.917975 1.009541 -3.139750 -0.217693 2.938638 -5.906462 -18.452808 3.611153 36.034056 -45.732969 83.573341 42.876243 0.000000 0.000000 0.000000 
-3.351491 82.205292 3.473820 0.000000 0.000000 0.000000 1.240010 -44.590210 5.672260 -44.499891 -3.631413 19.921597 43.416972 -6.563470 -6.014392 -8.249786 -3.275816 -18.938262 0.000000 0.000000 0.000000 6.628214 -50.344467 -1.482096 -27.097205 -17.728874 -24.312408 43.579544 8.823337 -0.493990 -12.354865 4.555635 17.015606 0.000000 0.000000 0.000000 -0.985968 -28.381950 1.127825 0.502315 -32.364875 3.831958 11.868299 -0.686112 -5.541941 6.296538 0.701800 -3.961456 0.000000 0.000000 0.000000 3.117419 3.318320 -1.763726 -1.164582 3.589357 -0.196328 0.000000 0.000000 0.000000 2.829855 -0.580287 -3.156083 -2.299529 -6.196801 -11.677562 -13.852173 -2.544903 -39.425331 -0.299677 -35.780161 0.013261 0.000000 0.000000 0.000000 2.902162 0.944969 -3.148018 -0.337922 2.357457 -5.852080 -15.479302 4.035512 34.393650 -43.202736 84.496120 40.727595 0.000000 0.000000 0.000000 
-3.545829 82.191803 3.526300 0.000000 0.000000 0.000000 1.457358 -44.632967 5.895873 -44.312252 -3.683321 20.057878 43.275758 -6.641713 -6.140654 -8.312358 -3.269440 -19.248078 0.000000 0.000000 0.000000 6.875180 -50.053238 -1.392273 -26.766565 -17.690340 -24.252917 43.728859 8.954241 -0.538379 -12.257300 4.725449 17.022011 0.000000 0.000000 0.000000 -1.159338 -28.821496 1.218879 0.346389 -31.327831 3.397226 11.582816 -0.754126 -5.393180 6.206011 0.638975 -3.875060 0.000000 0.000000 0.000000 3.130417 3.141534 -1.707017 -1.219632 3.600985 -0.115228 0.000000 0.000000 0.000000 2.930316 -0.662658 -3.154306 -2.357650 -5.924342 -11.142269 -13.194752 -2.750269 -38.680044 0.155210 -35.949642 0.401470 0.000000 0.000000 0.000000 2.885028 0.847748 -3.147151 -0.505822 1.565209 -5.758818 -11.349492 4.447140 31.988269 -36.249050 85.609967 34.278950 0.000000 0.000000 0.000000 
-3.809173 82.206932 3.591608 0.000000 0.000000 0.000000 1.698902 -44.651399 6.137357 -44.095923 -3.731429 20.205260 43.105262 -6.735584 -6.266716 -8.395016 -3.273911 -19.582543 0.000000 0.000000 0.000000 7.134466 -49.685142 -1.285666 -26.400119 -17.636962 -24.172933 43.809506 9.045667 -0.572088 -12.195191 4.854271 17.002651 0.000000 0.000000 0.000000 -1.355054 -29.420869 1.337921 0.208904 -29.957626 2.869017 11.246358 -0.814043 -5.174790 6.090817 0.561692 -3.749942 0.000000 0.000000 0.000000 3.138482 2.931912 -1.617396 -1.272234 3.600487 -0.013162 0.000000 0.000000 0.000000 3.021112 -0.761185 -3.123829 -2.419364 -5.575390 -10.440030 -12.547358 -2.969431 -37.700670 0.628196 -36.289150 0.867309 0.000000 0.000000 0.000000 2.869788 0.718137 -3.128466 -0.707645 0.629986 -5.621757 -6.402423 4.632788 28.946448 -19.742792 86.552465 18.340900 0.000000 0.000000 0.000000 
-4.131862 82.268509 3.680064 0.000000 0.000000 0.000000 1.939505 -44.625089 6.366287 -43.866050 -3.764461 20.344420 42.924003 -6.839242 -6.371666 -8.486535 -3.296790 -19.902598 0.000000 0.000000 0.000000 7.377226 -49.259604 -1.173062 -26.027578 -17.571543 -24.079786 43.754499 9.061924 -0.585328 -12.208571 4.899438 16.942291 0.000000 0.000000 0.000000 -1.547556 -30.128463 1.483474 0.107825 -28.295664 2.285075 10.887258 -0.861721 -4.891519 5.950091 0.474061 -3.586949 0.000000 0.000000 0.000000 3.143951 2.701420 -1.494551 -1.311517 3.582634 0.102362 0.000000 0.000000 0.000000 3.078455 -0.866163 -3.051537 -2.480828 -5.146509 -9.599339 -12.048622 -3.153544 -36.521524 1.047470 -36.806325 1.381236 0.000000 0.000000 0.000000 2.855418 0.557364 -3.087874 -0.927974 -0.386718 -5.444360 -1.014701 4.399326 25.491316 7.732228 86.732413 -8.559186 0.000000 0.000000 0.000000 
-4.497263 82.391441 3.810331 0.000000 0.000000 0.000000 2.162113 -44.543615 6.559274 -43.630186 -3.774522 20.458624 42.752142 -6.947615 -6.440072 -8.570529 -3.344653 -20.179417 0.000000 0.000000 0.000000 7.593109 -48.799769 -1.063630 -25.659545 -17.500603 -23.985171 43.511324 8.983034 -0.574896 -12.330015 4.837046 16.828633 0.000000 0.000000 0.000000 -1.715771 -30.851418 1.651367 0.044010 -26.412883 1.683965 10.529205 -0.902116 -4.561335 5.781041 0.380745 -3.392537 0.000000 0.000000 0.000000 3.155722 2.458026 -1.344014 -1.328853 3.546269 0.222144 0.000000 0.000000 0.000000 3.086158 -0.965369 -2.928871 -2.541793 -4.623843 -8.658096 -11.818150 -3.256640 -35.191177 1.356555 -37.459237 1.916385 0.000000 0.000000 0.000000 2.835613 0.368090 -3.026623 -1.152842 -1.435298 -5.239897 4.440071 3.629002 21.913373 30.919269 85.857117 -31.210433 0.000000 0.000000 0.000000 
-4.886965 82.586487 4.004025 0.000000 0.000000 0.000000 2.361204 -44.410822 6.703740 -43.386874 -3.758712 20.535942 42.605135 -7.056779 -6.462341 -8.631680 -3.422437 -20.395177 0.000000 0.000000 0.000000 7.793159 -48.327656 -0.959505 -25.286323 -17.433658 -23.899935 43.049637 8.804641 -0.544036 -12.579288 4.662425 16.653709 0.000000 0.000000 0.000000 -1.850971 -31.481564 1.831942 0.009533 -24.402022 1.100719 10.186210 -0.942896 -4.210220 5.581154 0.287210 -3.176986 0.000000 0.000000 0.000000 3.187124 2.206293 -1.174755 -1.318009 3.493439 0.337320 0.000000 0.000000 0.000000 3.038460 -1.044375 -2.752137 -2.603962 -3.986415 -7.651959 -11.940009 -3.248318 -33.761567 1.519282 -38.170608 2.450042 0.000000 0.000000 0.000000 2.799619 0.154682 -2.949892 -1.372662 -2.477335 -5.028883 9.630019 2.308898 18.505329 42.489500 84.346430 -42.317885 0.000000 0.000000 0.000000 
-5.286469 82.858879 4.279028 0.000000 0.000000 0.000000 2.543266 -44.242390 6.800032 -43.126801 -3.719234 20.571669 42.488851 -7.164240 -6.433911 -8.661794 -3.533022 -20.541340 0.000000 0.000000 0.000000 8.006465 -47.858558 -0.851163 -24.882844 -17.381264 -23.827354 42.363500 8.534865 -0.500255 -12.961169 4.386318 16.415176 0.000000 0.000000 0.000000 -1.960251 -31.930042 2.008923 -0.004105 -22.361206 0.563310 9.861012 -0.987846 -3.864002 5.350126 0.199380 -2.951539 0.000000 0.000000 0.000000 3.252196 1.948936 -0.996352 -1.274912 3.427572 0.441151 0.000000 0.000000 0.000000 2.938258 -1.087961 -2.522080 -2.670450 -3.212553 -6.604897 -12.454423 -3.116665 -32.277927 1.519849 -38.850423 2.964724 0.000000 0.000000 0.000000 2.734860 -0.077060 -2.864721 -1.583914 -3.484293 -4.834144 14.297917 0.519708 15.490232 47.241844 82.594452 -46.703870 0.000000 0.000000 0.000000 
-5.688789 83.207268 4.643647 0.000000 0.000000 0.000000 2.723273 -44.057138 6.859804 -42.836423 -3.661421 20.569299 42.398406 -7.268877 -6.354215 -8.662634 -3.676830 -20.616001 0.000000 0.000000 0.000000 8.271914 -47.396117 -0.716635 -24.417088 -17.352533 -23.758267 41.468701 8.191088 -0.452321 -13.466830 4.030086 16.117710 0.000000 0.000000 0.000000 -2.061896 -32.150807 2.162229 -0.003844 -20.376655 0.090904 9.548015 -1.034201 -3.541509 5.090905 0.122600 -2.725910 0.000000 0.000000 0.000000 3.362141 1.688168 -0.817215 -1.197628 3.351887 0.529761 0.000000 0.000000 0.000000 2.792038 -1.082653 -2.243461 -2.746887 -2.287265 -5.527261 -13.360354 -2.860535 -30.773708 1.358492 -39.414208 3.448250 0.000000 0.000000 0.000000 2.630528 -0.320858 -2.778355 -1.788665 -4.438659 -4.676016 18.281058 -1.605883 12.979390 48.789578 80.787464 -47.996999 0.000000 0.000000 0.000000 
-6.094926 83.623848 5.093238 0.000000 0.000000 0.000000 2.918228 -43.865852 6.900475 -42.503092 -3.590364 20.538947 42.321174 -7.370451 -6.225843 -8.644383 -3.851597 -20.621270 0.000000 0.000000 0.000000 8.627063 -46.929970 -0.526571 -23.859220 -17.352601 -23.670958 40.396297 7.797878 -0.407462 -14.078332 3.621658 15.774158 0.000000 0.000000 0.000000 -2.175070 -32.143697 2.273939 0.003023 -18.511530 -0.306058 9.238870 -1.074973 -3.251597 4.809640 0.060537 -2.506984 0.000000 0.000000 0.000000 3.522990 1.426408 -0.644153 -1.086654 3.268668 0.601779 0.000000 0.000000 0.000000 2.604806 -1.019677 -1.924734 -2.842666 -1.208049 -4.421216 -14.627482 -2.478025 -29.270226 1.044492 -39.794185 3.892857 0.000000 0.000000 0.000000 2.481025 -0.571275 -2.697353 -1.992309 -5.336341 -4.569563 21.513653 -3.930014 10.975405 48.793536 79.011505 -47.865583 0.000000 0.000000 0.000000 
